<!--?xml version="1.0" encoding="UTF-8"?-->
<svg xmlns="http://www.w3.org/2000/svg" version="1.1" width="73" height="73" viewBox="0 0 73 73">
	<rect x="0" y="0" width="73" height="73" fill="#ffffff"></rect>
	<g transform="scale(2.517)">
	<g transform="translate(0,0)">
    <path fill-rule="evenodd" d="M10 0L10 1L8 1L8 2L9 2L9 3L8 3L8 4L10 4L10 3L12 3L12 4L11 4L11 5L10 5L10 7L11 7L11 8L6 8L6 9L5 9L5 8L0 8L0 10L1 10L1 11L0 11L0 12L1 12L1 13L0 13L0 14L1 14L1 16L2 16L2 15L3 15L3 16L4 16L4 17L3 17L3 18L2 18L2 17L0 17L0 21L1 21L1 18L2 18L2 19L3 19L3 18L4 18L4 19L7 19L7 20L3 20L3 21L7 21L7 20L8 20L8 23L9 23L9 24L8 24L8 29L9 29L9 27L10 27L10 26L13 26L13 25L14 25L14 26L15 26L15 28L16 28L16 29L20 29L20 28L17 28L17 26L15 26L15 25L16 25L16 24L15 24L15 23L16 23L16 22L14 22L14 20L13 20L13 19L14 19L14 18L15 18L15 20L17 20L17 23L18 23L18 24L19 24L19 23L20 23L20 25L19 25L19 26L20 26L20 27L22 27L22 26L20 26L20 25L25 25L25 22L26 22L26 23L27 23L27 21L28 21L28 22L29 22L29 19L28 19L28 18L29 18L29 17L28 17L28 16L29 16L29 15L27 15L27 14L29 14L29 12L28 12L28 10L29 10L29 9L28 9L28 8L27 8L27 10L26 10L26 11L27 11L27 12L25 12L25 11L24 11L24 12L25 12L25 13L24 13L24 15L25 15L25 13L26 13L26 15L27 15L27 16L26 16L26 17L27 17L27 18L26 18L26 19L24 19L24 20L23 20L23 18L25 18L25 17L23 17L23 18L22 18L22 17L20 17L20 16L23 16L23 15L22 15L22 14L23 14L23 13L22 13L22 12L23 12L23 9L24 9L24 10L25 10L25 9L26 9L26 8L25 8L25 9L24 9L24 8L23 8L23 9L22 9L22 8L21 8L21 9L20 9L20 8L19 8L19 5L20 5L20 7L21 7L21 0L20 0L20 2L18 2L18 1L19 1L19 0L17 0L17 2L18 2L18 3L17 3L17 4L16 4L16 3L15 3L15 4L14 4L14 3L13 3L13 2L14 2L14 1L12 1L12 0ZM11 1L11 2L12 2L12 1ZM15 1L15 2L16 2L16 1ZM18 3L18 4L20 4L20 3ZM15 4L15 5L14 5L14 6L13 6L13 8L11 8L11 9L10 9L10 11L11 11L11 12L10 12L10 13L9 13L9 12L8 12L8 13L9 13L9 14L10 14L10 15L8 15L8 14L7 14L7 13L6 13L6 12L7 12L7 11L5 11L5 10L4 10L4 13L2 13L2 14L3 14L3 15L4 15L4 14L5 14L5 18L7 18L7 19L8 19L8 20L9 20L9 19L10 19L10 20L11 20L11 21L9 21L9 23L10 23L10 24L9 24L9 25L11 25L11 24L14 24L14 25L15 25L15 24L14 24L14 22L11 22L11 21L13 21L13 20L12 20L12 19L13 19L13 18L14 18L14 17L15 17L15 18L16 18L16 19L17 19L17 20L18 20L18 21L20 21L20 20L21 20L21 19L22 19L22 18L20 18L20 17L19 17L19 16L20 16L20 13L21 13L21 12L20 12L20 11L21 11L21 10L22 10L22 9L21 9L21 10L20 10L20 9L19 9L19 8L18 8L18 6L17 6L17 8L16 8L16 6L15 6L15 5L16 5L16 4ZM8 5L8 7L9 7L9 5ZM11 5L11 7L12 7L12 5ZM14 6L14 7L15 7L15 6ZM13 8L13 9L11 9L11 10L13 10L13 11L12 11L12 12L11 12L11 13L10 13L10 14L13 14L13 13L14 13L14 14L15 14L15 15L16 15L16 14L17 14L17 15L18 15L18 16L19 16L19 14L17 14L17 13L19 13L19 12L17 12L17 11L16 11L16 10L17 10L17 9L16 9L16 10L15 10L15 13L14 13L14 12L13 12L13 11L14 11L14 10L13 10L13 9L14 9L14 8ZM1 9L1 10L2 10L2 11L3 11L3 9ZM6 9L6 10L8 10L8 11L9 11L9 10L8 10L8 9ZM18 9L18 10L19 10L19 9ZM12 12L12 13L13 13L13 12ZM16 12L16 13L15 13L15 14L16 14L16 13L17 13L17 12ZM27 12L27 13L28 13L28 12ZM5 13L5 14L6 14L6 15L7 15L7 16L6 16L6 17L7 17L7 16L8 16L8 15L7 15L7 14L6 14L6 13ZM10 15L10 19L11 19L11 18L13 18L13 17L14 17L14 16L13 16L13 15L12 15L12 16L11 16L11 15ZM12 16L12 17L13 17L13 16ZM15 16L15 17L16 17L16 16ZM17 17L17 19L18 19L18 20L19 20L19 19L18 19L18 18L19 18L19 17ZM26 19L26 20L25 20L25 21L26 21L26 20L28 20L28 19ZM21 21L21 24L24 24L24 21ZM22 22L22 23L23 23L23 22ZM28 23L28 24L26 24L26 25L28 25L28 26L26 26L26 27L27 27L27 28L26 28L26 29L27 29L27 28L28 28L28 26L29 26L29 25L28 25L28 24L29 24L29 23ZM24 26L24 28L23 28L23 29L24 29L24 28L25 28L25 26ZM12 27L12 28L13 28L13 29L14 29L14 28L13 28L13 27ZM10 28L10 29L11 29L11 28ZM21 28L21 29L22 29L22 28ZM0 0L0 7L7 7L7 0ZM1 1L1 6L6 6L6 1ZM2 2L2 5L5 5L5 2ZM22 0L22 7L29 7L29 0ZM23 1L23 6L28 6L28 1ZM24 2L24 5L27 5L27 2ZM0 22L0 29L7 29L7 22ZM1 23L1 28L6 28L6 23ZM2 24L2 27L5 27L5 24Z" fill="#000000"></path>
    </g>
    </g>
</svg>
